<?xml version="1.0" standalone="no"?>
<!DOCTYPE svg PUBLIC "-//W3C//DTD SVG 20010904//EN"
 "http://www.w3.org/TR/2001/REC-SVG-20010904/DTD/svg10.dtd">
<svg version="1.0" xmlns="http://www.w3.org/2000/svg"
 width="4064.000000pt" height="4064.000000pt" viewBox="0 0 4064.000000 4064.000000"
 preserveAspectRatio="xMidYMid meet">

<g transform="translate(0.000000,4064.000000) scale(0.100000,-0.100000)"
fill="#000000" stroke="none">
<path d="M20081 39204 c-42 -11 -91 -28 -109 -38 -28 -14 -57 -17 -180 -15
-152 2 -240 -13 -320 -55 -20 -10 -56 -16 -100 -16 -74 0 -196 -26 -249 -53
-18 -10 -50 -17 -73 -17 -46 0 -155 -28 -220 -57 -25 -11 -70 -26 -100 -33
-30 -7 -72 -21 -92 -31 -21 -11 -68 -26 -105 -35 -44 -10 -78 -25 -100 -44
-18 -16 -50 -32 -70 -36 -21 -4 -55 -15 -75 -25 -21 -11 -68 -26 -105 -35 -43
-10 -78 -25 -94 -41 -15 -13 -46 -29 -69 -34 -24 -5 -59 -23 -79 -39 -19 -17
-47 -30 -62 -30 -15 0 -45 -15 -70 -35 -26 -20 -55 -35 -71 -35 -16 0 -41 -12
-60 -29 -18 -15 -51 -38 -73 -50 -49 -26 -99 -60 -143 -96 -18 -15 -51 -31
-74 -36 -22 -6 -54 -21 -71 -35 -16 -14 -46 -33 -66 -43 -20 -11 -45 -28 -55
-40 -11 -12 -25 -21 -32 -21 -6 0 -31 -16 -55 -36 -23 -19 -56 -41 -73 -49
-31 -13 -116 -90 -116 -105 0 -5 -14 -13 -30 -19 -17 -5 -50 -26 -73 -44 -23
-19 -51 -37 -62 -41 -11 -3 -40 -26 -65 -52 -25 -25 -53 -53 -63 -62 -10 -9
-42 -41 -70 -71 -29 -29 -60 -60 -71 -70 -10 -9 -73 -72 -140 -140 -66 -68
-129 -131 -139 -140 -10 -9 -42 -40 -70 -70 -29 -29 -59 -60 -68 -68 -9 -9
-41 -40 -72 -70 -78 -79 -79 -79 -175 -174 -48 -48 -110 -111 -138 -140 -29
-30 -60 -61 -70 -70 -11 -9 -26 -25 -36 -35 -9 -10 -27 -29 -40 -42 -40 -38
-47 -46 -109 -107 -33 -33 -64 -64 -70 -70 -5 -5 -66 -66 -134 -135 -68 -69
-130 -132 -139 -140 -8 -8 -39 -39 -68 -68 -29 -29 -61 -60 -70 -70 -10 -9
-41 -41 -70 -70 -29 -29 -61 -60 -70 -70 -54 -53 -256 -255 -274 -274 -12 -13
-28 -28 -35 -34 -8 -6 -24 -22 -36 -35 -22 -24 -30 -32 -72 -71 -13 -13 -47
-47 -75 -77 -28 -29 -59 -61 -70 -70 -10 -9 -73 -72 -140 -140 -66 -68 -129
-131 -138 -140 -9 -9 -41 -40 -70 -70 -29 -29 -61 -60 -71 -70 -9 -9 -42 -41
-72 -71 -30 -30 -61 -62 -70 -70 -97 -95 -193 -192 -206 -207 -9 -10 -25 -25
-35 -34 -10 -9 -26 -25 -35 -35 -9 -10 -25 -26 -35 -35 -10 -9 -26 -25 -36
-35 -9 -10 -27 -29 -40 -42 -38 -36 -46 -44 -108 -107 -33 -33 -64 -64 -70
-70 -10 -9 -241 -242 -273 -275 -14 -14 -48 -47 -75 -73 -7 -6 -24 -23 -38
-37 -13 -14 -28 -29 -34 -35 -6 -5 -98 -98 -205 -205 -107 -107 -200 -201
-207 -208 -125 -125 -548 -547 -561 -560 -9 -9 -44 -44 -77 -77 -33 -33 -65
-64 -71 -70 -6 -5 -37 -37 -70 -70 -32 -33 -63 -64 -68 -69 -4 -5 -51 -51
-103 -104 -53 -52 -100 -100 -107 -106 -6 -6 -21 -22 -33 -34 -13 -13 -32 -31
-42 -40 -10 -10 -26 -26 -35 -36 -9 -10 -25 -26 -35 -35 -10 -9 -26 -25 -35
-35 -9 -10 -25 -26 -35 -35 -10 -9 -26 -25 -35 -35 -9 -10 -25 -26 -35 -35
-10 -9 -26 -25 -35 -35 -9 -10 -24 -26 -35 -35 -42 -36 -196 -194 -196 -201 0
-3 -11 -13 -25 -20 -13 -7 -28 -22 -31 -33 -4 -12 -1575 -1589 -3491 -3506
-2848 -2848 -3489 -3494 -3505 -3532 -12 -27 -33 -53 -50 -64 -16 -9 -33 -27
-37 -39 -6 -14 -24 -25 -55 -34 -68 -18 -166 -123 -166 -178 0 -8 -11 -31 -24
-52 -13 -20 -30 -54 -37 -76 -8 -22 -24 -43 -36 -49 -13 -6 -23 -13 -23 -17 0
-4 -20 -30 -45 -56 -25 -27 -54 -58 -64 -69 -27 -29 -51 -81 -51 -109 0 -15
-7 -27 -19 -31 -10 -3 -30 -19 -45 -35 -14 -17 -30 -30 -35 -30 -19 0 -111
-149 -111 -179 0 -10 -13 -36 -29 -58 -16 -22 -38 -58 -49 -79 -20 -38 -87
-114 -101 -114 -4 0 -21 -21 -38 -47 -25 -40 -31 -62 -36 -128 -7 -89 -20
-136 -51 -180 -30 -42 -46 -75 -46 -93 0 -8 -15 -38 -33 -66 -38 -59 -50 -88
-86 -211 -15 -49 -41 -115 -59 -145 -17 -30 -32 -61 -32 -68 0 -7 -9 -30 -20
-52 -12 -23 -20 -59 -20 -88 0 -52 -20 -126 -51 -183 -12 -23 -19 -57 -19 -90
0 -62 -21 -149 -44 -184 -9 -13 -25 -58 -36 -100 -11 -43 -30 -94 -40 -116
-18 -35 -20 -59 -20 -266 l0 -228 -32 -85 -32 -85 -3 -589 c-3 -496 -1 -592
11 -611 8 -12 24 -52 35 -89 17 -56 21 -94 21 -217 0 -130 3 -155 20 -189 11
-22 27 -70 36 -107 8 -38 23 -86 33 -108 34 -75 51 -152 51 -226 0 -60 6 -89
32 -154 21 -52 34 -106 38 -155 5 -61 12 -83 38 -120 17 -25 39 -52 50 -61 10
-9 27 -47 37 -85 10 -38 29 -93 42 -121 13 -29 28 -74 33 -100 5 -27 18 -68
29 -93 11 -25 21 -53 21 -64 0 -10 16 -41 35 -67 19 -27 35 -52 35 -55 0 -16
110 -231 124 -243 9 -7 16 -22 16 -33 0 -31 39 -99 91 -159 39 -46 52 -71 69
-134 24 -88 62 -161 90 -170 24 -8 87 -93 134 -180 43 -79 63 -105 82 -105 7
0 21 -13 30 -29 10 -16 28 -34 41 -40 12 -6 23 -19 23 -29 0 -28 66 -132 113
-178 23 -23 48 -48 55 -55 7 -8 34 -34 59 -59 25 -24 52 -55 60 -67 9 -13 26
-26 38 -29 13 -3 29 -19 35 -35 7 -17 23 -32 37 -35 15 -4 29 -19 38 -40 8
-19 21 -34 29 -34 9 0 16 -4 16 -10 0 -11 117 -130 129 -130 5 0 18 -16 30
-35 11 -19 27 -35 35 -35 8 0 23 -16 35 -35 11 -19 26 -35 32 -35 19 0 98 -91
104 -121 4 -16 22 -45 41 -65 19 -21 34 -48 34 -61 0 -13 9 -27 22 -34 13 -7
53 -42 89 -78 84 -83 115 -106 170 -127 24 -9 56 -29 70 -43 14 -14 34 -33 45
-42 10 -8 42 -41 71 -72 29 -31 57 -57 62 -57 6 0 18 -14 26 -30 9 -17 26 -36
39 -42 13 -5 29 -21 35 -34 6 -13 22 -29 35 -35 13 -6 29 -22 36 -34 7 -13 24
-26 37 -30 15 -3 28 -17 34 -33 5 -16 23 -36 39 -45 16 -10 31 -26 35 -36 3
-10 16 -24 29 -30 13 -7 29 -23 36 -35 7 -11 38 -43 71 -71 32 -27 61 -57 64
-66 3 -10 35 -41 70 -70 36 -30 69 -66 76 -81 6 -14 22 -29 35 -32 13 -4 24
-10 24 -14 0 -13 106 -122 118 -122 7 0 20 -12 29 -27 18 -27 192 -201 300
-298 31 -27 99 -93 152 -145 53 -53 139 -124 191 -159 52 -35 106 -72 120 -83
14 -10 77 -52 140 -93 63 -40 129 -84 145 -98 17 -13 44 -31 60 -40 17 -8 46
-29 65 -46 19 -17 39 -31 43 -31 5 0 23 -11 41 -25 18 -14 36 -25 39 -25 4 0
35 -19 70 -43 35 -23 79 -51 97 -62 80 -48 102 -63 128 -88 16 -15 32 -27 38
-27 14 0 91 -43 169 -94 38 -25 73 -46 77 -46 5 0 45 -23 91 -52 45 -28 107
-65 137 -81 30 -17 68 -41 83 -54 16 -12 33 -23 39 -23 6 0 27 -12 46 -26 19
-15 60 -40 91 -55 31 -16 81 -43 112 -61 31 -18 78 -45 104 -60 26 -16 52 -28
56 -28 11 0 89 -48 107 -67 7 -7 20 -13 29 -13 8 0 27 -9 42 -19 15 -11 51
-31 81 -46 50 -24 150 -76 255 -132 45 -24 115 -60 160 -82 17 -8 37 -18 45
-23 8 -4 44 -23 80 -42 36 -18 88 -45 115 -60 28 -14 89 -44 136 -65 47 -22
110 -54 138 -70 29 -17 57 -31 64 -31 6 0 68 -27 137 -61 69 -34 157 -76 195
-95 39 -19 80 -34 91 -34 12 0 45 -15 72 -34 28 -18 62 -36 76 -40 14 -3 42
-17 62 -31 20 -14 42 -25 49 -25 7 0 43 -15 81 -34 38 -18 87 -40 109 -49 22
-8 84 -36 137 -61 53 -25 99 -46 102 -46 9 0 299 -120 327 -135 14 -8 59 -26
100 -41 41 -15 85 -34 99 -44 14 -9 39 -20 56 -23 18 -3 49 -18 69 -32 21 -14
47 -25 57 -25 11 0 48 -13 82 -29 33 -16 88 -37 121 -46 33 -10 90 -33 126
-51 36 -19 80 -34 98 -34 18 0 46 -9 63 -21 30 -22 97 -49 259 -105 53 -18
111 -42 130 -52 19 -11 57 -25 85 -31 29 -6 68 -20 88 -32 20 -12 51 -25 69
-29 17 -5 68 -22 112 -38 44 -17 102 -35 129 -41 27 -7 73 -23 103 -36 29 -14
61 -25 71 -25 10 0 44 -13 77 -30 33 -16 67 -30 76 -30 9 0 36 -7 60 -16 172
-63 306 -109 379 -130 232 -68 438 -135 508 -166 24 -10 71 -25 105 -34 91
-22 140 -37 162 -50 11 -6 45 -17 75 -23 30 -7 89 -23 130 -37 41 -14 101 -32
133 -40 32 -8 70 -20 85 -27 15 -8 63 -22 107 -31 130 -28 167 -38 223 -63 30
-13 81 -26 115 -30 34 -3 82 -17 106 -30 24 -12 56 -23 70 -23 14 0 46 -9 70
-21 25 -11 83 -28 130 -39 47 -11 127 -31 176 -45 50 -14 128 -34 175 -44 173
-38 499 -122 625 -161 33 -10 98 -26 145 -35 47 -8 126 -27 175 -41 50 -13
128 -31 175 -40 47 -8 112 -23 145 -33 71 -22 182 -48 245 -57 25 -3 69 -15
98 -25 29 -10 66 -19 82 -19 16 0 96 -16 178 -35 81 -19 184 -39 228 -45 43
-6 113 -20 154 -32 41 -11 120 -28 175 -38 55 -10 160 -32 233 -49 73 -17 146
-31 162 -31 25 0 88 -12 285 -55 38 -8 85 -15 104 -15 19 0 60 -6 90 -14 31
-8 110 -24 176 -36 66 -12 161 -29 210 -40 105 -21 193 -35 325 -50 52 -7 145
-22 205 -35 61 -12 157 -28 215 -35 58 -6 152 -20 210 -31 58 -10 143 -23 190
-29 47 -6 117 -17 155 -25 77 -15 299 -43 441 -55 51 -4 97 -11 104 -15 7 -4
67 -13 133 -21 67 -7 156 -17 197 -23 41 -6 99 -11 129 -11 30 0 77 -6 105
-14 28 -8 105 -20 171 -26 229 -21 321 -29 460 -40 77 -6 158 -15 180 -20 22
-5 114 -14 205 -20 175 -11 469 -35 610 -50 93 -10 331 -24 675 -41 121 -6
294 -14 385 -19 458 -24 912 -32 1585 -27 391 3 760 10 820 16 61 6 189 15
285 21 96 6 254 15 350 21 341 21 416 28 464 43 27 9 83 16 125 16 42 0 119 7
171 15 52 8 118 15 146 15 30 0 70 8 95 20 25 11 66 20 95 20 28 0 97 9 155
20 57 10 178 33 269 50 91 17 183 37 205 45 22 8 80 22 130 30 49 9 110 25
135 36 25 10 72 23 105 28 33 6 96 22 140 36 44 14 103 33 130 41 28 9 67 26
87 39 20 14 49 27 65 31 36 9 120 50 128 64 3 6 31 26 61 45 30 19 62 44 71
55 10 11 23 20 29 20 7 0 23 13 36 29 14 16 34 34 46 40 12 6 29 25 37 41 9
17 21 30 29 30 7 0 37 26 65 58 29 31 56 60 59 64 4 4 34 35 67 68 33 33 67
67 75 76 8 9 98 96 200 195 102 99 189 183 193 188 5 5 20 20 34 34 43 44 47
48 83 88 19 22 43 47 53 57 26 26 42 42 106 107 32 33 77 78 100 100 22 22
140 141 261 265 379 386 1678 1695 1834 1849 82 80 183 181 225 224 42 42 134
135 205 205 729 722 846 844 846 881 0 16 82 101 98 101 4 0 16 16 26 35 11
19 23 35 27 35 4 0 55 47 112 105 58 58 109 105 114 105 5 0 17 16 27 35 11
19 25 35 32 35 8 0 20 13 28 29 14 26 30 39 101 83 108 67 140 92 205 160 42
43 81 78 87 78 6 0 19 12 28 27 10 15 52 59 94 97 127 119 341 335 341 345 0
5 7 14 16 22 9 7 29 39 45 70 26 52 45 79 87 121 50 49 135 139 166 174 22 25
50 45 75 53 22 6 53 23 70 37 16 13 43 29 60 35 17 6 31 17 31 24 0 8 16 26
35 40 19 15 37 35 40 46 4 10 17 25 30 32 30 15 75 77 106 145 13 29 27 52 31
52 4 0 24 15 45 34 305 272 709 675 752 748 16 30 40 63 51 73 11 10 20 24 20
31 0 8 43 57 96 111 53 54 106 118 119 143 13 25 32 54 44 64 12 11 21 25 21
33 0 8 24 40 53 71 29 31 70 83 90 114 21 31 42 60 47 63 6 3 10 16 10 28 0
21 19 57 64 123 11 16 44 66 74 111 30 46 58 85 63 89 5 3 9 16 9 30 0 24 39
96 60 109 5 3 10 15 10 26 0 25 33 91 54 108 9 8 16 23 16 35 0 27 33 98 54
116 9 7 16 21 16 31 0 19 31 81 55 109 7 8 15 26 19 40 4 14 14 50 22 80 8 30
21 69 28 85 8 17 20 45 27 64 7 18 22 45 34 60 12 14 27 53 35 86 7 33 23 83
35 110 13 28 25 61 28 75 15 70 30 119 46 155 29 64 41 109 50 187 5 42 17 88
29 108 24 42 46 142 37 170 -4 12 4 43 19 77 42 94 56 168 56 288 0 81 4 118
16 140 50 95 48 68 51 755 3 571 2 653 -13 715 -9 39 -26 86 -37 104 -19 32
-21 48 -18 177 2 152 -12 242 -50 314 -11 19 -19 54 -19 78 0 54 -26 158 -47
191 -9 14 -19 59 -24 100 -4 42 -16 101 -27 131 -45 129 -51 147 -62 190 -13
49 -13 49 -52 108 -16 23 -28 51 -28 62 0 11 -6 31 -14 43 -8 12 -24 58 -36
102 -12 44 -25 85 -28 91 -4 6 -19 30 -34 52 -16 23 -28 50 -28 61 0 10 -16
42 -35 71 -19 29 -35 62 -35 75 0 12 -7 28 -16 36 -21 17 -54 83 -54 108 0 11
-5 23 -10 26 -21 13 -60 85 -60 109 0 14 -5 28 -10 31 -19 12 -60 84 -60 106
0 12 -10 34 -22 49 -23 27 -68 96 -99 150 -8 15 -27 42 -42 60 -15 17 -27 37
-27 43 0 7 -18 34 -40 61 -22 26 -40 54 -40 61 0 6 -9 20 -20 30 -11 10 -32
39 -46 64 -15 25 -53 74 -85 108 -33 34 -59 68 -59 76 0 7 -9 22 -20 32 -11
10 -34 41 -50 69 -16 28 -53 77 -82 109 -29 32 -69 76 -88 98 -19 23 -170 175
-335 339 -165 165 -307 306 -315 315 -8 8 -26 27 -40 40 -14 14 -29 29 -35 36
-5 6 -21 21 -35 35 -14 13 -29 28 -35 34 -5 6 -21 21 -34 33 -13 12 -29 28
-35 35 -6 7 -54 55 -106 107 -52 52 -99 100 -105 105 -5 6 -34 34 -64 63 -51
50 -75 74 -104 107 -8 8 -23 22 -33 32 -10 9 -40 38 -65 65 -26 26 -57 58 -70
70 -13 11 -34 32 -47 45 -12 12 -28 29 -35 36 -6 7 -36 36 -66 65 -29 29 -61
60 -70 70 -9 9 -41 42 -71 72 -30 30 -62 61 -70 70 -48 49 -182 182 -197 196
-10 9 -44 43 -75 75 -31 33 -62 64 -68 69 -6 6 -21 21 -34 35 -14 14 -31 31
-38 37 -40 38 -62 60 -76 77 -10 10 -25 27 -36 36 -19 18 -36 35 -67 66 -10
11 -23 24 -29 29 -6 6 -21 21 -34 35 -13 14 -30 30 -38 36 -7 6 -23 22 -35 35
-12 13 -27 29 -33 34 -10 9 -265 265 -292 293 -7 7 -21 21 -32 31 -10 10 -26
26 -35 35 -9 9 -27 27 -40 39 -12 12 -30 31 -40 41 -9 10 -24 26 -34 35 -10 9
-40 38 -65 64 -26 27 -73 74 -106 105 -32 31 -66 66 -75 76 -9 10 -24 26 -35
35 -10 9 -24 22 -30 29 -6 7 -35 36 -64 65 -29 29 -60 60 -70 70 -9 10 -28 29
-42 42 -14 14 -29 29 -35 36 -5 6 -21 21 -35 35 -14 13 -29 28 -33 33 -28 30
-46 48 -63 63 -17 14 -34 31 -77 76 -6 7 -37 38 -67 68 -30 30 -58 58 -62 62
-9 8 -122 122 -139 138 -6 7 -53 54 -105 105 -51 52 -99 99 -106 105 -7 7 -39
38 -70 70 -31 33 -62 64 -68 69 -6 6 -21 21 -34 35 -13 14 -30 30 -38 37 -7 6
-39 37 -71 70 -31 32 -65 66 -75 75 -9 10 -40 41 -69 70 -29 29 -58 58 -65 64
-7 6 -23 22 -35 35 -12 13 -27 29 -33 34 -11 11 -342 342 -361 362 -6 6 -22
22 -36 36 -14 14 -30 30 -36 37 -7 6 -23 22 -37 36 -14 13 -28 27 -32 31 -24
26 -47 50 -64 64 -10 9 -26 25 -35 35 -9 10 -25 26 -35 35 -10 9 -26 25 -35
35 -9 10 -25 26 -35 35 -10 9 -26 25 -35 35 -9 10 -25 26 -35 35 -10 9 -26 25
-35 35 -9 10 -25 26 -35 35 -10 9 -26 25 -35 35 -9 10 -25 26 -35 35 -10 9
-26 25 -35 35 -9 10 -25 26 -35 35 -10 9 -26 25 -35 35 -9 10 -25 26 -35 35
-10 9 -26 25 -35 35 -9 10 -25 26 -35 36 -17 14 -31 28 -77 76 -6 7 -70 71
-142 143 -71 71 -134 134 -140 140 -5 5 -53 52 -105 104 -52 52 -99 98 -103
102 -9 10 -320 320 -345 345 -53 53 -200 199 -215 215 -289 290 -279 280 -315
315 -13 13 -31 32 -40 42 -10 10 -25 26 -34 35 -17 16 -26 24 -66 63 -13 13
-31 32 -40 42 -10 10 -26 26 -36 35 -10 9 -26 25 -35 35 -9 10 -25 26 -35 35
-10 9 -26 25 -35 35 -16 19 -36 39 -63 63 -12 11 -44 43 -71 71 -6 8 -38 39
-71 70 -32 31 -66 66 -75 76 -9 10 -25 26 -35 35 -10 9 -26 25 -35 35 -9 10
-40 42 -70 70 -29 28 -61 60 -70 70 -9 10 -24 27 -34 37 -11 9 -24 22 -30 28
-10 9 -242 241 -282 281 -5 6 -53 53 -105 104 -52 52 -102 101 -110 110 -34
35 -321 323 -342 343 -13 12 -30 30 -39 40 -9 10 -23 25 -32 33 -22 20 -126
121 -144 140 -11 12 -276 278 -345 348 -7 7 -55 54 -107 105 -51 51 -101 100
-110 111 -9 10 -56 58 -105 106 -48 48 -93 93 -100 99 -6 6 -37 37 -69 69 -33
31 -66 65 -75 76 -13 14 -157 157 -203 202 -5 5 -20 20 -33 34 -14 14 -29 30
-35 35 -6 6 -70 69 -141 140 -137 137 -135 135 -182 183 -17 16 -35 35 -42 41
-6 7 -35 35 -65 64 -29 29 -61 60 -70 69 -9 10 -59 60 -111 112 -52 52 -99
100 -105 106 -5 6 -34 34 -64 63 -29 29 -61 60 -70 69 -9 10 -59 60 -111 112
-52 52 -99 100 -105 106 -5 6 -21 22 -35 36 -14 13 -29 28 -34 33 -4 5 -33 33
-64 63 -30 31 -62 63 -71 72 -9 9 -41 41 -71 71 -30 30 -62 61 -70 70 -13 13
-182 183 -203 202 -4 5 -34 35 -67 68 -62 63 -70 71 -108 107 -13 13 -34 34
-45 47 -12 13 -44 44 -71 70 -26 25 -55 53 -63 62 -19 20 -119 120 -133 134
-6 6 -21 21 -34 35 -27 27 -25 26 -110 108 -33 31 -66 65 -75 74 -9 9 -56 57
-105 105 -49 48 -128 129 -176 178 -49 50 -95 96 -103 104 -34 32 -61 58 -100
99 -23 24 -55 50 -72 57 -62 30 -176 117 -233 178 -14 15 -29 27 -34 27 -9 0
-120 71 -168 108 -14 11 -39 26 -56 35 -18 9 -46 28 -64 43 -18 15 -44 35 -60
43 -58 34 -95 57 -143 94 -29 20 -60 37 -70 37 -22 0 -54 16 -82 40 -11 10
-37 21 -58 24 -20 4 -53 20 -71 37 -19 16 -49 32 -67 35 -19 4 -50 19 -69 34
-19 15 -52 30 -73 34 -20 4 -52 20 -70 35 -17 16 -49 31 -70 35 -20 4 -53 20
-71 37 -22 19 -52 33 -86 39 -29 5 -78 21 -109 35 -31 13 -85 32 -120 40 -36
9 -81 25 -100 34 -20 10 -61 24 -91 31 -30 7 -75 22 -100 33 -58 26 -140 47
-215 56 -33 4 -73 14 -90 23 -55 29 -158 50 -238 49 -55 -1 -86 3 -109 15 -18
10 -65 27 -104 39 -62 19 -87 21 -206 17 -124 -4 -140 -3 -180 17 -25 11 -49
21 -56 21 -6 0 -31 7 -56 15 -37 13 -131 16 -571 18 -505 2 -531 1 -604 -19z
m-3765 -13219 c13 -16 24 -34 24 -38 0 -5 16 -41 35 -80 19 -39 35 -77 35 -84
0 -7 14 -37 30 -66 17 -30 30 -60 30 -68 0 -9 15 -46 34 -85 18 -38 39 -87 46
-109 7 -22 19 -49 26 -61 8 -11 23 -46 34 -79 11 -32 31 -78 45 -103 14 -24
25 -51 25 -58 0 -16 29 -83 46 -104 6 -8 19 -40 29 -70 10 -30 21 -59 25 -65
4 -5 31 -66 59 -135 29 -69 66 -154 83 -190 17 -36 39 -89 49 -119 10 -30 23
-59 27 -65 5 -6 21 -40 35 -76 14 -36 46 -112 72 -170 26 -58 56 -130 67 -160
11 -30 24 -60 29 -66 5 -6 20 -41 34 -78 14 -37 36 -89 50 -116 14 -27 25 -55
25 -62 0 -7 12 -35 26 -63 14 -27 36 -79 50 -114 13 -36 29 -70 34 -76 6 -7
18 -37 29 -66 10 -30 30 -78 45 -106 14 -29 26 -57 26 -64 0 -6 16 -44 35 -85
19 -40 35 -77 35 -80 0 -4 18 -48 41 -98 78 -176 98 -221 114 -266 9 -25 21
-50 25 -55 5 -6 16 -33 25 -60 10 -28 32 -81 51 -119 19 -39 34 -77 34 -85 0
-9 11 -35 24 -58 13 -23 29 -59 36 -80 7 -21 23 -58 36 -83 12 -25 30 -66 38
-91 8 -26 23 -62 34 -80 10 -19 25 -52 32 -74 7 -22 23 -60 36 -85 13 -25 33
-72 45 -105 12 -33 27 -67 34 -75 6 -8 18 -35 25 -60 7 -25 24 -63 36 -85 12
-22 25 -51 29 -65 4 -14 19 -50 33 -80 13 -30 33 -75 42 -100 23 -57 76 -183
101 -235 18 -40 55 -128 109 -260 16 -38 40 -92 54 -119 14 -27 26 -57 26 -65
0 -9 13 -40 29 -69 16 -29 33 -67 36 -84 4 -17 18 -52 32 -77 14 -25 34 -71
45 -101 11 -30 25 -60 29 -66 5 -6 18 -35 28 -65 10 -30 30 -77 45 -105 14
-29 26 -57 26 -64 0 -6 16 -43 35 -81 19 -39 35 -75 35 -82 0 -7 18 -48 40
-92 22 -44 40 -85 40 -92 0 -6 16 -44 35 -84 19 -41 35 -80 35 -89 0 -8 14
-37 30 -65 16 -27 30 -56 30 -63 0 -7 16 -46 35 -87 19 -41 37 -87 41 -102 4
-15 17 -46 30 -69 13 -22 33 -66 43 -97 11 -32 27 -70 35 -85 19 -35 83 -185
103 -242 9 -25 27 -64 40 -87 13 -23 23 -48 23 -56 0 -7 16 -45 35 -84 19 -39
35 -77 35 -83 0 -7 13 -38 29 -69 15 -31 31 -67 35 -81 9 -29 62 -153 111
-255 18 -38 38 -87 45 -108 6 -21 25 -63 41 -95 16 -31 29 -64 29 -72 0 -9 6
-24 13 -35 8 -11 29 -56 47 -100 46 -112 93 -220 124 -288 14 -32 26 -62 26
-68 0 -6 32 -70 70 -144 39 -74 70 -139 70 -145 0 -6 18 -49 40 -95 22 -46 40
-90 40 -98 0 -8 14 -39 30 -70 17 -31 30 -63 30 -71 0 -8 15 -43 33 -78 18
-35 39 -83 47 -108 8 -25 22 -56 31 -70 10 -14 23 -45 29 -70 7 -25 25 -68 41
-96 16 -28 29 -60 29 -69 0 -10 16 -47 35 -82 19 -35 35 -71 35 -81 0 -9 18
-53 40 -97 22 -44 40 -86 40 -94 0 -8 13 -37 28 -65 16 -28 32 -67 36 -86 3
-19 18 -52 32 -73 14 -22 32 -64 40 -95 8 -31 23 -66 34 -77 10 -11 25 -44 34
-74 9 -30 26 -72 39 -95 14 -23 27 -53 30 -67 4 -14 18 -42 32 -63 34 -49 34
-100 0 -122 -23 -15 -118 -16 -1081 -15 -1019 1 -1056 2 -1093 20 -29 15 -40
29 -51 63 -8 24 -29 72 -47 108 -18 36 -33 71 -33 78 0 7 -11 34 -24 60 -13
26 -31 70 -40 99 -10 28 -25 62 -34 75 -10 13 -23 45 -30 73 -7 27 -26 71 -42
97 -16 25 -32 62 -35 82 -4 19 -19 55 -34 78 -14 24 -35 70 -45 102 -10 33
-27 71 -37 85 -10 14 -23 47 -27 73 -5 25 -19 58 -31 73 -11 15 -28 50 -36 78
-8 27 -24 66 -36 86 -12 20 -28 59 -36 86 -8 28 -25 68 -38 90 -13 22 -28 58
-35 80 -7 22 -23 56 -36 76 -12 20 -28 56 -34 80 -6 24 -21 60 -32 79 -11 19
-27 56 -34 82 -8 26 -28 72 -44 103 -17 32 -30 64 -30 73 0 8 -13 39 -29 67
-16 29 -35 72 -41 96 -7 24 -20 56 -31 70 -10 14 -25 48 -34 75 -9 27 -24 65
-34 84 -10 19 -24 53 -31 75 -7 22 -26 66 -41 97 -16 32 -29 62 -29 68 0 7
-16 44 -35 84 -19 40 -35 83 -35 95 0 13 -16 55 -35 95 -19 40 -35 79 -35 86
0 7 -13 38 -29 69 -16 31 -37 79 -46 106 -10 28 -22 55 -27 62 -5 7 -22 45
-38 85 -43 113 -71 178 -100 238 -15 30 -36 78 -45 105 -10 28 -22 55 -27 61
-4 6 -19 42 -33 80 -15 38 -34 83 -44 99 -10 17 -21 44 -25 60 -4 17 -21 59
-38 95 -17 36 -35 76 -40 90 -6 14 -16 39 -24 55 -7 17 -28 64 -45 105 -71
172 -91 217 -109 253 -11 21 -20 43 -20 49 0 6 -18 47 -39 92 -22 44 -43 94
-47 110 -4 15 -19 51 -34 80 -15 28 -30 65 -33 83 -4 18 -17 49 -30 70 -13 21
-29 58 -37 83 -8 25 -22 59 -32 75 -9 17 -24 51 -33 75 -9 25 -28 72 -44 105
-16 33 -48 107 -71 165 -23 58 -52 125 -65 150 -12 25 -26 56 -30 70 -8 29
-63 157 -105 245 -16 33 -34 78 -41 100 -6 22 -18 50 -25 63 -8 12 -27 55 -43
95 -16 39 -46 110 -66 157 -21 47 -48 112 -62 145 -13 33 -37 88 -53 122 -17
34 -30 66 -30 72 0 7 -13 37 -29 69 -15 31 -32 68 -36 82 -4 14 -20 50 -35 82
-16 31 -31 67 -35 80 -4 12 -23 55 -41 95 -19 40 -34 77 -34 83 0 7 -16 43
-35 81 -19 39 -35 75 -35 80 0 5 -16 44 -35 85 -19 41 -35 78 -35 81 0 4 -15
41 -34 83 -19 41 -41 96 -51 122 -22 63 -52 100 -78 96 -17 -2 -25 -17 -40
-73 -10 -38 -24 -76 -31 -85 -13 -14 -46 -101 -46 -120 0 -5 -11 -26 -25 -46
-14 -20 -30 -55 -36 -78 -6 -22 -21 -61 -35 -85 -13 -24 -29 -62 -35 -85 -6
-22 -19 -52 -29 -66 -9 -14 -25 -50 -35 -80 -10 -30 -21 -59 -25 -65 -10 -13
-130 -293 -130 -303 0 -4 -10 -25 -21 -47 -12 -22 -30 -63 -39 -90 -10 -28
-29 -74 -44 -102 -14 -29 -26 -57 -26 -63 0 -7 -16 -43 -35 -81 -19 -39 -35
-74 -35 -79 0 -5 -15 -42 -34 -82 -18 -40 -37 -84 -41 -96 -4 -13 -20 -50 -36
-82 -16 -33 -29 -64 -29 -70 0 -6 -13 -36 -29 -68 -15 -31 -32 -68 -36 -82 -4
-14 -22 -55 -41 -93 -19 -37 -34 -72 -34 -79 0 -7 -15 -46 -34 -88 -18 -41
-50 -111 -70 -155 -20 -45 -36 -85 -36 -89 0 -5 -13 -34 -28 -65 -16 -31 -35
-74 -42 -95 -7 -22 -26 -65 -41 -97 -16 -32 -29 -65 -29 -73 0 -8 -13 -39 -29
-68 -16 -29 -34 -71 -41 -93 -7 -22 -23 -58 -35 -80 -13 -22 -28 -58 -35 -80
-7 -22 -26 -66 -41 -97 -16 -32 -29 -64 -29 -71 0 -7 -11 -36 -26 -63 -14 -27
-36 -76 -48 -109 -13 -33 -45 -109 -71 -170 -26 -60 -54 -134 -61 -164 -8 -30
-23 -69 -33 -85 -11 -17 -26 -55 -35 -85 -9 -30 -22 -61 -30 -70 -7 -9 -23
-42 -35 -74 -11 -32 -31 -76 -42 -99 -12 -23 -28 -63 -35 -90 -8 -27 -26 -64
-39 -84 -13 -19 -27 -49 -30 -67 -7 -32 -17 -56 -90 -209 -20 -43 -43 -102
-52 -130 -8 -29 -23 -64 -32 -78 -10 -14 -23 -45 -31 -70 -8 -25 -26 -68 -42
-96 -15 -28 -28 -59 -28 -68 0 -10 -16 -46 -35 -80 -19 -35 -35 -68 -35 -75 0
-7 -18 -50 -40 -96 -22 -46 -40 -89 -40 -95 0 -7 -16 -44 -35 -83 -19 -39 -35
-77 -35 -86 0 -8 -13 -38 -29 -66 -16 -28 -35 -71 -42 -96 -7 -24 -21 -55 -30
-69 -10 -14 -26 -50 -35 -80 -10 -30 -24 -61 -31 -68 -7 -7 -22 -42 -33 -78
-11 -36 -29 -78 -40 -93 -10 -16 -24 -50 -30 -76 -6 -26 -21 -66 -34 -89 -13
-22 -31 -61 -39 -86 -8 -25 -27 -65 -41 -90 -14 -25 -26 -52 -26 -61 0 -8 -15
-46 -34 -85 -18 -38 -37 -80 -41 -94 -4 -14 -17 -43 -30 -65 -13 -22 -30 -66
-39 -97 -10 -31 -23 -62 -31 -68 -8 -7 -24 -42 -35 -79 -12 -36 -29 -80 -40
-98 -11 -18 -26 -56 -35 -84 -8 -29 -22 -60 -30 -69 -8 -9 -24 -44 -34 -78
-11 -34 -31 -81 -44 -105 -14 -23 -28 -58 -31 -78 -4 -21 -18 -54 -33 -75 -14
-22 -32 -61 -39 -87 -14 -52 -77 -152 -102 -162 -8 -3 -491 -6 -1073 -6 -782
0 -1064 3 -1080 11 -19 11 -21 18 -17 68 3 41 12 69 32 99 15 22 34 63 42 89
8 26 24 64 35 83 12 20 30 63 40 97 11 34 25 67 32 73 8 6 19 30 26 53 7 24
28 75 47 114 19 39 34 75 34 81 0 5 13 34 29 64 16 30 32 70 35 90 4 21 15 48
26 62 11 14 29 52 39 84 11 32 30 78 44 103 14 25 28 60 32 77 3 18 20 56 36
85 16 29 29 60 29 69 0 8 18 51 40 94 22 43 40 85 40 93 0 9 12 35 26 59 14
24 35 72 46 106 11 34 28 73 37 87 10 14 25 51 35 82 10 31 23 62 30 68 8 6
19 32 27 58 7 26 28 78 46 117 18 38 33 77 33 86 0 9 13 36 30 60 16 24 30 52
30 63 0 10 13 46 30 80 29 61 67 148 120 281 43 109 92 218 106 240 7 11 19
43 27 71 8 28 26 69 39 90 14 22 30 62 37 89 8 28 22 63 33 78 11 15 26 51 35
80 8 29 23 63 32 77 9 14 25 50 36 80 10 30 27 69 36 85 10 17 27 59 38 93 11
35 26 71 34 80 8 10 24 46 37 82 12 36 28 72 35 80 8 9 20 38 27 65 8 28 25
70 40 95 14 25 32 65 38 90 6 25 20 57 30 71 10 15 26 53 35 85 10 33 25 68
35 79 10 11 23 38 30 60 6 22 25 67 41 100 16 33 35 83 44 111 8 29 21 57 29
63 8 7 24 37 37 69 12 31 28 64 35 72 7 9 25 47 40 85 14 39 29 75 33 80 5 6
21 44 36 85 15 41 31 80 36 85 4 6 19 41 33 79 15 38 30 74 35 80 4 6 13 27
21 46 7 19 27 69 46 110 40 91 138 322 171 405 13 33 35 83 48 110 13 28 34
77 48 110 53 131 71 172 98 229 16 33 29 65 29 72 0 11 37 98 100 229 15 33
35 80 44 105 8 25 26 68 40 95 14 28 26 56 26 63 0 7 16 43 35 79 19 36 35 72
35 80 0 7 13 39 29 71 15 31 34 75 41 96 7 22 21 53 30 70 10 17 26 54 36 81
10 28 28 68 40 90 12 22 27 60 34 85 6 25 19 56 29 70 10 14 26 49 35 78 10
29 31 79 47 110 16 31 29 63 29 70 0 6 12 36 26 65 14 28 35 77 46 107 12 30
27 64 34 76 8 11 22 45 33 75 10 30 30 78 45 106 14 29 26 57 26 63 0 5 12 34
26 63 14 28 34 75 43 102 10 28 28 68 40 90 11 22 21 44 21 50 0 9 35 88 111
253 16 34 29 68 29 75 0 7 15 44 34 83 18 38 37 80 41 94 4 14 23 56 41 94 19
39 34 75 34 81 0 6 16 42 35 79 19 38 35 75 35 83 0 7 13 39 29 71 15 31 34
75 41 96 7 22 21 54 31 71 11 17 28 60 40 96 12 35 29 75 38 89 10 14 23 45
31 70 7 25 24 63 36 85 12 22 25 51 29 65 3 14 21 57 40 95 18 39 38 88 45
110 7 22 20 51 30 65 9 14 25 50 35 80 10 30 24 64 31 75 7 11 20 40 30 65 9
25 26 65 37 90 12 25 29 65 38 90 17 48 70 172 98 229 34 72 -21 68 882 67
l811 -1 24 -30z m7114 9 l21 -21 2 -2079 2 -2079 25 -2 c27 -3 47 10 71 44 8
12 67 77 130 145 62 67 136 148 164 178 27 30 90 98 140 150 49 52 144 153
210 225 66 71 154 165 195 210 41 44 104 112 139 150 35 39 118 128 185 200
367 393 451 483 666 715 129 139 240 258 245 264 55 60 238 258 265 287 19 20
80 85 135 144 55 60 134 145 176 189 42 45 91 97 109 116 17 19 78 85 134 145
121 129 342 369 406 440 45 49 323 342 482 508 l85 87 1474 0 c1521 0 1499 1
1499 -38 0 -7 -44 -59 -97 -115 -54 -57 -145 -154 -203 -216 -58 -62 -119
-127 -136 -145 -17 -17 -66 -71 -110 -121 -88 -101 -132 -149 -324 -355 -74
-80 -162 -174 -195 -209 -33 -36 -69 -75 -80 -86 -11 -12 -67 -73 -125 -135
-132 -143 -129 -140 -225 -241 -44 -46 -127 -136 -185 -199 -58 -63 -137 -149
-176 -190 -39 -41 -86 -92 -105 -114 -19 -21 -50 -55 -69 -75 -52 -55 -176
-187 -254 -271 -38 -41 -96 -104 -131 -140 -34 -36 -101 -110 -150 -165 -49
-55 -126 -138 -171 -185 -46 -47 -91 -94 -101 -106 -21 -25 -212 -229 -334
-358 -167 -177 -171 -182 -171 -221 0 -24 10 -48 28 -73 16 -20 39 -57 52 -82
40 -78 71 -132 95 -169 13 -20 33 -56 45 -81 12 -25 42 -81 66 -125 25 -44 56
-100 68 -125 13 -25 26 -47 29 -50 4 -3 21 -32 39 -65 71 -133 92 -172 116
-207 13 -21 24 -41 24 -46 0 -4 14 -30 31 -56 17 -27 53 -92 81 -145 28 -53
54 -100 58 -106 4 -5 24 -39 43 -75 19 -36 54 -99 77 -140 44 -78 94 -170 140
-255 15 -27 44 -79 65 -115 20 -36 52 -92 69 -125 46 -85 86 -159 136 -245 48
-84 88 -156 136 -245 17 -33 50 -91 72 -130 23 -38 59 -105 81 -147 22 -42 45
-79 51 -83 5 -3 10 -14 10 -24 0 -10 12 -36 27 -57 28 -42 57 -93 110 -194 19
-36 40 -72 47 -80 7 -8 25 -40 40 -70 29 -60 63 -121 121 -220 21 -36 53 -92
71 -125 17 -33 53 -98 79 -145 69 -125 106 -191 144 -262 18 -35 37 -68 41
-73 5 -6 23 -37 41 -70 17 -33 44 -82 60 -110 15 -27 41 -75 56 -105 16 -31
38 -70 51 -87 12 -17 31 -50 42 -74 11 -24 28 -57 38 -73 52 -88 171 -303 219
-395 19 -36 39 -71 46 -79 11 -13 38 -62 84 -152 9 -19 29 -53 44 -75 14 -22
38 -62 51 -90 46 -91 84 -159 107 -198 32 -52 65 -112 95 -173 13 -28 30 -57
38 -65 7 -8 25 -39 41 -69 15 -30 41 -80 59 -110 41 -72 89 -160 133 -240 19
-36 50 -92 69 -125 83 -150 191 -344 216 -390 69 -125 87 -156 149 -250 36
-55 71 -115 77 -133 7 -19 21 -44 32 -55 11 -12 27 -41 35 -65 8 -23 26 -51
41 -63 45 -35 47 -121 3 -135 -12 -4 -530 -6 -1150 -6 -1079 2 -1131 3 -1171
21 -31 13 -46 28 -56 52 -7 19 -24 49 -38 67 -13 19 -36 57 -51 85 -14 29 -32
61 -39 72 -6 11 -17 31 -22 45 -6 14 -30 59 -55 100 -24 41 -55 95 -67 120
-13 25 -33 61 -44 80 -12 19 -29 58 -38 87 -10 28 -24 57 -32 63 -7 7 -14 16
-14 21 0 7 -129 241 -176 319 -8 14 -30 54 -50 90 -42 79 -67 124 -169 305
-43 77 -92 164 -108 194 -15 30 -36 66 -46 80 -10 14 -28 46 -40 71 -27 55
-60 115 -89 162 -13 20 -35 60 -51 90 -45 85 -82 152 -92 165 -10 11 -37 61
-106 193 -19 36 -52 97 -75 135 -22 39 -50 88 -62 110 -13 22 -46 83 -76 135
-68 122 -95 171 -135 245 -36 65 -98 179 -146 265 -17 30 -37 62 -45 71 -8 8
-14 19 -14 23 0 8 -104 197 -228 416 -14 25 -40 72 -57 105 -17 33 -50 92 -72
130 -47 81 -93 164 -139 253 -19 34 -38 68 -44 75 -6 6 -22 35 -37 62 -75 145
-94 179 -106 194 -8 9 -23 34 -34 56 -39 77 -90 170 -131 240 -23 39 -52 90
-65 115 -34 63 -125 227 -153 275 -13 22 -38 67 -55 100 -17 33 -51 94 -74
135 -53 91 -82 145 -127 229 -18 36 -39 66 -46 69 -18 5 -127 -106 -413 -418
-296 -324 -483 -527 -573 -621 -136 -142 -339 -359 -411 -439 -82 -91 -168
-185 -235 -255 -31 -33 -108 -116 -171 -185 -62 -69 -134 -147 -159 -174 -25
-28 -58 -63 -73 -78 -16 -16 -34 -43 -41 -61 -14 -38 -14 -1666 1 -2877 9
-773 9 -775 -38 -801 -18 -9 -234 -12 -936 -11 -1035 1 -977 -3 -988 75 -3 23
-3 434 0 912 3 479 7 2967 10 5529 5 4259 6 4661 21 4677 9 10 30 20 48 22 17
2 435 3 928 3 896 -1 897 -1 918 -22z"/>
</g>
</svg>
